<svg width="24" height="24" viewBox="0 0 24 24" fill="none" xmlns="http://www.w3.org/2000/svg">
<g clip-path="url(#clip0_725_487)">
<path d="M20.5201 15.2101L18.7201 13.4001V8.94014C18.744 7.28396 18.1679 5.67505 17.0982 4.41048C16.0285 3.1459 14.5373 2.31107 12.9001 2.06014C11.9499 1.93501 10.9839 2.01395 10.0667 2.29171C9.14942 2.56947 8.30194 3.03966 7.5808 3.6709C6.85965 4.30214 6.28142 5.07992 5.88468 5.95233C5.48794 6.82475 5.28182 7.77175 5.28007 8.73014V13.4001L3.48007 15.2101C3.25398 15.44 3.10066 15.7314 3.03927 16.0479C2.97789 16.3645 3.01117 16.6921 3.13495 16.9898C3.25873 17.2875 3.46752 17.5421 3.73522 17.7218C4.00292 17.9015 4.31766 17.9983 4.64007 18.0001H8.00007V18.3401C8.04678 19.3553 8.49403 20.3106 9.2438 20.9967C9.99357 21.6827 10.9847 22.0436 12.0001 22.0001C13.0154 22.0436 14.0066 21.6827 14.7563 20.9967C15.5061 20.3106 15.9534 19.3553 16.0001 18.3401V18.0001H19.3601C19.6825 17.9983 19.9972 17.9015 20.2649 17.7218C20.5326 17.5421 20.7414 17.2875 20.8652 16.9898C20.989 16.6921 21.0223 16.3645 20.9609 16.0479C20.8995 15.7314 20.7462 15.44 20.5201 15.2101ZM14.0001 18.3401C13.9446 18.8211 13.7057 19.2622 13.3331 19.5714C12.9606 19.8807 12.4831 20.0342 12.0001 20.0001C11.5171 20.0342 11.0396 19.8807 10.667 19.5714C10.2944 19.2622 10.0555 18.8211 10.0001 18.3401V18.0001H14.0001V18.3401Z" fill="#FA7400"/>
</g>
<defs>
<clipPath id="clip0_725_487">
<rect width="24" height="24" fill="white"/>
</clipPath>
</defs>
</svg>
