<svg width="74" height="96" viewBox="0 0 74 96" fill="none" xmlns="http://www.w3.org/2000/svg">
<path d="M68.7001 22.8999H5.50008C3.10008 22.8999 1.00008 24.7999 0.900078 27.1999C0.800078 29.6999 2.80008 31.7999 5.30008 31.7999H25.9001L26.5001 54.7999L21.3001 89.7999C20.9001 92.4999 22.8001 94.9999 25.4001 95.3999C28.1001 95.7999 30.6001 93.8999 31.0001 91.2999L36.2001 56.5999C36.3001 56.1999 36.6001 55.8999 37.0001 55.8999C37.4001 55.8999 37.7001 56.1999 37.8001 56.5999L43.0001 91.2999C43.4001 93.6999 45.5001 95.4999 47.9001 95.4999C48.1001 95.4999 48.4001 95.4999 48.6001 95.3999C51.3001 94.9999 53.1001 92.4999 52.7001 89.7999L47.5001 54.7999L48.1001 31.7999H68.6001C71.0001 31.7999 73.1001 29.8999 73.2001 27.4999C73.2001 24.9999 71.2001 22.8999 68.7001 22.8999Z" fill="#FA7400"/>
<path d="M37.0002 20.1C42.4126 20.1 46.8002 15.7124 46.8002 10.3C46.8002 4.88761 42.4126 0.5 37.0002 0.5C31.5878 0.5 27.2002 4.88761 27.2002 10.3C27.2002 15.7124 31.5878 20.1 37.0002 20.1Z" fill="#FA7400"/>
</svg>
